<svg width="900" height="900" viewBox="0 0 900 900" fill="none" xmlns="http://www.w3.org/2000/svg">
  <rect width="900" height="900" fill="#FFF9ED"/>
  <path d="M70 590H600V810H70V590Z" fill="#F7F1E7"/>
  <path d="M40 590L335 370L630 590H40Z" fill="#E6D7C3"/>
  <path d="M110 645H200V810H110V645Z" fill="#FFFFFF"/>
  <path d="M260 645H350V810H260V645Z" fill="#FFFFFF"/>
  <path d="M410 645H500V810H410V645Z" fill="#FFFFFF"/>
  <path d="M135 665H185V720H135V665Z" fill="#6BB6EE" opacity="0.6"/>
  <path d="M285 665H335V720H285V665Z" fill="#6BB6EE" opacity="0.6"/>
  <path d="M435 665H485V720H435V665Z" fill="#6BB6EE" opacity="0.6"/>
  <path d="M660 810C700 700 775 640 850 620C785 704 760 760 755 840" stroke="#6BB6EE" stroke-width="18" stroke-linecap="round" opacity="0.45"/>
  <path d="M770 640C720 590 650 575 590 600C665 613 713 644 744 699" stroke="#2D72B8" stroke-width="13" stroke-linecap="round" opacity="0.55"/>
  <path d="M770 640C805 570 860 540 895 540" stroke="#2D72B8" stroke-width="13" stroke-linecap="round" opacity="0.45"/>
</svg>
