<svg width="180" height="180" viewBox="0 0 180 180" fill="none" xmlns="http://www.w3.org/2000/svg">
  <path d="M88 68C75 46 52 36 28 42C54 50 70 63 84 85" stroke="#2D72B8" stroke-width="5" stroke-linecap="round"/>
  <path d="M91 69C94 42 110 25 134 18C121 43 108 59 91 82" stroke="#2D72B8" stroke-width="5" stroke-linecap="round"/>
  <path d="M93 74C117 57 139 55 160 69C133 69 113 75 94 92" stroke="#2D72B8" stroke-width="5" stroke-linecap="round"/>
  <path d="M88 76C65 66 43 70 24 87C52 82 70 86 89 98" stroke="#2D72B8" stroke-width="5" stroke-linecap="round"/>
  <path d="M91 82C90 103 85 125 74 151" stroke="#2D72B8" stroke-width="6" stroke-linecap="round"/>
  <path d="M37 152C57 143 77 143 97 152C117 161 137 161 157 152" stroke="#2D72B8" stroke-width="5" stroke-linecap="round"/>
</svg>
